<svg id="Layer_1" data-name="Layer 1" xmlns="http://www.w3.org/2000/svg" viewBox="0 0 200 200"><defs><style>.cls-1{fill:#0d1431;}.cls-2{fill:#fff;}</style></defs><title>drip_plugin_200x200px</title><rect class="cls-1" x="-3" y="-4" width="206" height="206"/><g id="Layer_2" data-name="Layer 2"><g id="drip-small"><g id="drip-small-2"><path class="cls-2" d="M152.86,114H137.43v1.61a36.57,36.57,0,0,1-36,37,36.56,36.56,0,0,1-36-37V114H50v1.61A52,52,0,0,0,101.43,168a52,52,0,0,0,51.43-52.42Z"/><circle class="cls-2" cx="101.43" cy="90.08" r="10.29"/><circle class="cls-2" cx="132.28" cy="90.08" r="10.29"/><circle class="cls-2" cx="70.57" cy="90.08" r="10.29"/><path class="cls-2" d="M101.43,43.58l11,14.86h19.46A259.66,259.66,0,0,0,101.43,24,260.08,260.08,0,0,0,70.94,58.48H90.4Z"/></g></g></g></svg>