<?xml version="1.0" encoding="utf-8"?>
<!-- Generator: Adobe Illustrator 23.0.2, SVG Export Plug-In . SVG Version: 6.00 Build 0)  -->
<svg version="1.1" id="Layer_1" xmlns="http://www.w3.org/2000/svg" xmlns:xlink="http://www.w3.org/1999/xlink" x="0px" y="0px"
	 viewBox="0 0 200 200" style="enable-background:new 0 0 200 200;" xml:space="preserve">
<style type="text/css">
	.st0{fill:#1D1D1B;}
</style>
<title>drip_plugin_200x200px</title>
<g>
	<g id="drip-small">
		<g id="drip-small-2">
			<path class="st0" d="M169.7,125h-21.4v2.2c0.3,28-22,51-50,51.4c-28-0.4-50.3-23.4-50-51.4V125H26.9v2.2
				C26.6,167,58.5,199.6,98.3,200c39.8-0.4,71.8-33,71.4-72.8V125z"/>
			<circle class="st0" cx="98.3" cy="91.8" r="14.3"/>
			
				<ellipse transform="matrix(0.1602 -0.9871 0.9871 0.1602 27.9345 216.3887)" class="st0" cx="141.1" cy="91.8" rx="14.3" ry="14.3"/>
			<circle class="st0" cx="55.4" cy="91.8" r="14.3"/>
			<path class="st0" d="M98.3,27.2l15.3,20.6h27C127.9,30.7,113.8,14.7,98.3,0C82.8,14.7,68.6,30.7,55.9,47.9h27L98.3,27.2z"/>
		</g>
	</g>
</g>
</svg>
